<svg aria-roledescription="er" role="graphics-document document" viewBox="-65.65096282958984 0 724.2144165039062 417" style="max-width: 724.214px; background-color: white;" xmlns:xlink="http://www.w3.org/1999/xlink" xmlns="http://www.w3.org/2000/svg" width="100%" id="my-svg"><style>#my-svg{font-family:"trebuchet ms",verdana,arial,sans-serif;font-size:16px;fill:#333;}#my-svg .error-icon{fill:#552222;}#my-svg .error-text{fill:#552222;stroke:#552222;}#my-svg .edge-thickness-normal{stroke-width:2px;}#my-svg .edge-thickness-thick{stroke-width:3.5px;}#my-svg .edge-pattern-solid{stroke-dasharray:0;}#my-svg .edge-pattern-dashed{stroke-dasharray:3;}#my-svg .edge-pattern-dotted{stroke-dasharray:2;}#my-svg .marker{fill:#333333;stroke:#333333;}#my-svg .marker.cross{stroke:#333333;}#my-svg svg{font-family:"trebuchet ms",verdana,arial,sans-serif;font-size:16px;}#my-svg .entityBox{fill:#ECECFF;stroke:#9370DB;}#my-svg .attributeBoxOdd{fill:#ffffff;stroke:#9370DB;}#my-svg .attributeBoxEven{fill:#f2f2f2;stroke:#9370DB;}#my-svg .relationshipLabelBox{fill:hsl(80, 100%, 96.2745098039%);opacity:0.7;background-color:hsl(80, 100%, 96.2745098039%);}#my-svg .relationshipLabelBox rect{opacity:0.5;}#my-svg .relationshipLine{stroke:#333333;}#my-svg .entityTitleText{text-anchor:middle;font-size:18px;fill:#333;}#my-svg #MD_PARENT_START{fill:#f5f5f5!important;stroke:#333333!important;stroke-width:1;}#my-svg #MD_PARENT_END{fill:#f5f5f5!important;stroke:#333333!important;stroke-width:1;}#my-svg :root{--mermaid-font-family:"trebuchet ms",verdana,arial,sans-serif;}</style><g/><defs><marker orient="auto" markerHeight="240" markerWidth="190" refY="7" refX="0" id="MD_PARENT_START"><path d="M 18,7 L9,13 L1,7 L9,1 Z"/></marker></defs><defs><marker orient="auto" markerHeight="28" markerWidth="20" refY="7" refX="19" id="MD_PARENT_END"><path d="M 18,7 L9,13 L1,7 L9,1 Z"/></marker></defs><defs><marker orient="auto" markerHeight="18" markerWidth="18" refY="9" refX="0" id="ONLY_ONE_START"><path d="M9,0 L9,18 M15,0 L15,18" fill="none" stroke="gray"/></marker></defs><defs><marker orient="auto" markerHeight="18" markerWidth="18" refY="9" refX="18" id="ONLY_ONE_END"><path d="M3,0 L3,18 M9,0 L9,18" fill="none" stroke="gray"/></marker></defs><defs><marker orient="auto" markerHeight="18" markerWidth="30" refY="9" refX="0" id="ZERO_OR_ONE_START"><circle r="6" cy="9" cx="21" fill="white" stroke="gray"/><path d="M9,0 L9,18" fill="none" stroke="gray"/></marker></defs><defs><marker orient="auto" markerHeight="18" markerWidth="30" refY="9" refX="30" id="ZERO_OR_ONE_END"><circle r="6" cy="9" cx="9" fill="white" stroke="gray"/><path d="M21,0 L21,18" fill="none" stroke="gray"/></marker></defs><defs><marker orient="auto" markerHeight="36" markerWidth="45" refY="18" refX="18" id="ONE_OR_MORE_START"><path d="M0,18 Q 18,0 36,18 Q 18,36 0,18 M42,9 L42,27" fill="none" stroke="gray"/></marker></defs><defs><marker orient="auto" markerHeight="36" markerWidth="45" refY="18" refX="27" id="ONE_OR_MORE_END"><path d="M3,9 L3,27 M9,18 Q27,0 45,18 Q27,36 9,18" fill="none" stroke="gray"/></marker></defs><defs><marker orient="auto" markerHeight="36" markerWidth="57" refY="18" refX="18" id="ZERO_OR_MORE_START"><circle r="6" cy="18" cx="48" fill="white" stroke="gray"/><path d="M0,18 Q18,0 36,18 Q18,36 0,18" fill="none" stroke="gray"/></marker></defs><defs><marker orient="auto" markerHeight="36" markerWidth="57" refY="18" refX="39" id="ZERO_OR_MORE_END"><circle r="6" cy="18" cx="9" fill="white" stroke="gray"/><path d="M21,18 Q39,0 57,18 Q39,36 21,18" fill="none" stroke="gray"/></marker></defs><path style="stroke: gray; fill: none;" marker-start="url(#ONLY_ONE_START)" marker-end="url(#ONE_OR_MORE_END)" d="M171.6611328125,70.19953991258339L138.0068359375,81.16628326048617C104.3525390625,92.13302660838893,37.0439453125,114.06651330419447,3.3896484375,138.86658998543058C-30.2646484375,163.66666666666666,-30.2646484375,191.33333333333334,-30.2646484375,219C-30.2646484375,246.66666666666666,-30.2646484375,274.3333333333333,-18.389199443247126,296.5C-6.513750448994254,318.6666666666667,17.237147539511493,335.3333333333333,29.112596533764364,343.6666666666667L40.98804552801724,352" class="er relationshipLine"/><path style="stroke: gray; fill: none;" marker-start="url(#ONLY_ONE_START)" marker-end="url(#ZERO_OR_MORE_END)" d="M196.0579466302711,75.5L183.33751411897592,85.58333333333333C170.61708160768072,95.66666666666667,145.17621658509037,115.83333333333333,132.45578407379517,136C119.7353515625,156.16666666666666,119.7353515625,176.33333333333334,119.7353515625,186.41666666666666L119.7353515625,196.5" class="er relationshipLine"/><path style="stroke: gray; fill: none;" marker-start="url(#ONLY_ONE_START)" marker-end="url(#ZERO_OR_MORE_END)" d="M252.8268189947289,75.5L265.5472515060241,85.58333333333333C278.26768401731925,95.66666666666667,303.70854903990966,115.83333333333333,316.4289815512048,134.25C329.1494140625,152.66666666666666,329.1494140625,169.33333333333334,329.1494140625,177.66666666666666L329.1494140625,186" class="er relationshipLine"/><path style="stroke: gray; fill: none;" marker-start="url(#ONLY_ONE_START)" marker-end="url(#ONE_OR_MORE_END)" d="M277.2236328125,69.88745670832705L311.6624348958333,80.90621392360588C346.1012369791667,91.9249711388847,414.9788411458333,113.96248556944234,456.0637785517068,135.0645761180545C497.14871595758035,156.16666666666666,510.44098660266064,176.33333333333334,517.0871219252008,186.41666666666666L523.733257247741,196.5" class="er relationshipLine"/><path style="stroke: gray; fill: none;" marker-start="url(#ZERO_OR_MORE_START)" marker-end="url(#ZERO_OR_MORE_END)" d="M119.7353515625,241.5L119.7353515625,251.58333333333334C119.7353515625,261.6666666666667,119.7353515625,281.8333333333333,114.36942124640804,300.25C109.00349093031609,318.6666666666667,98.27163029813217,335.3333333333333,92.90569998204023,343.6666666666667L87.53976966594827,352" class="er relationshipLine"/><path style="stroke: gray; fill: none;" marker-start="url(#ZERO_OR_MORE_START)" marker-end="url(#ZERO_OR_MORE_END)" d="M329.1494140625,252L329.1494140625,260.3333333333333C329.1494140625,268.6666666666667,329.1494140625,285.3333333333333,295.3084309895833,303.2468842630019C261.4674479166667,321.16043519267043,193.78548177083334,340.32087038534087,159.94449869791666,349.9010879816761L126.103515625,359.4813055780113" class="er relationshipLine"/><path style="stroke: gray; fill: none;" marker-start="url(#ZERO_OR_ONE_START)" marker-end="url(#ONLY_ONE_END)" d="M588.5634765625,86L588.5634765625,94.33333333333333C588.5634765625,102.66666666666667,588.5634765625,119.33333333333333,582.4891793737451,137.75C576.41488218499,156.16666666666666,564.2662878074799,176.33333333333334,558.191990618725,186.41666666666666L552.1176934299699,196.5" class="er relationshipLine"/><g transform="translate(171.6611328125,30.5 )" id="entity-WORKSPACE-6025abd4-8157-5bcd-9036-214f8e8153f2"><rect height="45" width="105.5625" y="0" x="0" class="er entityBox"/><text style="dominant-baseline: middle; text-anchor: middle; font-size: 12px;" transform="translate(52.78125,12)" y="0" x="0" id="text-entity-WORKSPACE-6025abd4-8157-5bcd-9036-214f8e8153f2" class="er entityLabel">WORKSPACE</text><rect height="21" width="52.953125" y="24" x="0" class="er attributeBoxOdd"/><text style="dominant-baseline: middle; font-size: 10.2px;" transform="translate(5,34.5)" y="0" x="0" id="text-entity-WORKSPACE-6025abd4-8157-5bcd-9036-214f8e8153f2-attr-1-type" class="er entityLabel">string</text><rect height="21" width="52.609375" y="24" x="52.953125" class="er attributeBoxOdd"/><text style="dominant-baseline: middle; font-size: 10.2px;" transform="translate(57.953125,34.5)" y="0" x="0" id="text-entity-WORKSPACE-6025abd4-8157-5bcd-9036-214f8e8153f2-attr-1-name" class="er entityLabel">name</text></g><g transform="translate(20,352 )" id="entity-REPOSITORY-699695b0-5603-5c09-89a1-ea5acd069f5b"><rect height="45" width="106.103515625" y="0" x="0" class="er entityBox"/><text style="dominant-baseline: middle; text-anchor: middle; font-size: 12px;" transform="translate(53.0517578125,12)" y="0" x="0" id="text-entity-REPOSITORY-699695b0-5603-5c09-89a1-ea5acd069f5b" class="er entityLabel">REPOSITORY</text><rect height="21" width="56.2939453125" y="24" x="0" class="er attributeBoxOdd"/><text style="dominant-baseline: middle; font-size: 10.2px;" transform="translate(5,34.5)" y="0" x="0" id="text-entity-REPOSITORY-699695b0-5603-5c09-89a1-ea5acd069f5b-attr-1-type" class="er entityLabel">string</text><rect height="21" width="49.8095703125" y="24" x="56.2939453125" class="er attributeBoxOdd"/><text style="dominant-baseline: middle; font-size: 10.2px;" transform="translate(61.2939453125,34.5)" y="0" x="0" id="text-entity-REPOSITORY-699695b0-5603-5c09-89a1-ea5acd069f5b-attr-1-name" class="er entityLabel">type</text></g><g transform="translate(69.7353515625,196.5 )" id="entity-CHANNEL-6cb96bd1-e83a-59d1-94c7-50a2178d87d2"><rect height="45" width="100" y="0" x="0" class="er entityBox"/><text style="dominant-baseline: middle; text-anchor: middle; font-size: 12px;" transform="translate(50,12)" y="0" x="0" id="text-entity-CHANNEL-6cb96bd1-e83a-59d1-94c7-50a2178d87d2" class="er entityLabel">CHANNEL</text><rect height="21" width="53.2421875" y="24" x="0" class="er attributeBoxOdd"/><text style="dominant-baseline: middle; font-size: 10.2px;" transform="translate(5,34.5)" y="0" x="0" id="text-entity-CHANNEL-6cb96bd1-e83a-59d1-94c7-50a2178d87d2-attr-1-type" class="er entityLabel">string</text><rect height="21" width="46.7578125" y="24" x="53.2421875" class="er attributeBoxOdd"/><text style="dominant-baseline: middle; font-size: 10.2px;" transform="translate(58.2421875,34.5)" y="0" x="0" id="text-entity-CHANNEL-6cb96bd1-e83a-59d1-94c7-50a2178d87d2-attr-1-name" class="er entityLabel">type</text></g><g transform="translate(269.7353515625,186 )" id="entity-SUBSCRIPTION-94f3d937-f8eb-5596-9824-f1f8ba9bed64"><rect height="66" width="118.828125" y="0" x="0" class="er entityBox"/><text style="dominant-baseline: middle; text-anchor: middle; font-size: 12px;" transform="translate(59.4140625,12)" y="0" x="0" id="text-entity-SUBSCRIPTION-94f3d937-f8eb-5596-9824-f1f8ba9bed64" class="er entityLabel">SUBSCRIPTION</text><rect height="21" width="63.9296875" y="24" x="0" class="er attributeBoxOdd"/><text style="dominant-baseline: middle; font-size: 10.2px;" transform="translate(5,34.5)" y="0" x="0" id="text-entity-SUBSCRIPTION-94f3d937-f8eb-5596-9824-f1f8ba9bed64-attr-1-type" class="er entityLabel">string</text><rect height="21" width="54.8984375" y="24" x="63.9296875" class="er attributeBoxOdd"/><text style="dominant-baseline: middle; font-size: 10.2px;" transform="translate(68.9296875,34.5)" y="0" x="0" id="text-entity-SUBSCRIPTION-94f3d937-f8eb-5596-9824-f1f8ba9bed64-attr-1-name" class="er entityLabel">source</text><rect height="21" width="63.9296875" y="45" x="0" class="er attributeBoxEven"/><text style="dominant-baseline: middle; font-size: 10.2px;" transform="translate(5,55.5)" y="0" x="0" id="text-entity-SUBSCRIPTION-94f3d937-f8eb-5596-9824-f1f8ba9bed64-attr-2-type" class="er entityLabel">duration</text><rect height="21" width="54.8984375" y="45" x="63.9296875" class="er attributeBoxEven"/><text style="dominant-baseline: middle; font-size: 10.2px;" transform="translate(68.9296875,55.5)" y="0" x="0" id="text-entity-SUBSCRIPTION-94f3d937-f8eb-5596-9824-f1f8ba9bed64-attr-2-name" class="er entityLabel">expiry</text></g><g transform="translate(488.5634765625,196.5 )" id="entity-ROLE-47fb4726-62fa-56f9-a62b-070f27ba78ef"><rect height="45" width="100" y="0" x="0" class="er entityBox"/><text style="dominant-baseline: middle; text-anchor: middle; font-size: 12px;" transform="translate(50,12)" y="0" x="0" id="text-entity-ROLE-47fb4726-62fa-56f9-a62b-070f27ba78ef" class="er entityLabel">ROLE</text><rect height="21" width="50.171875" y="24" x="0" class="er attributeBoxOdd"/><text style="dominant-baseline: middle; font-size: 10.2px;" transform="translate(5,34.5)" y="0" x="0" id="text-entity-ROLE-47fb4726-62fa-56f9-a62b-070f27ba78ef-attr-1-type" class="er entityLabel">string</text><rect height="21" width="49.828125" y="24" x="50.171875" class="er attributeBoxOdd"/><text style="dominant-baseline: middle; font-size: 10.2px;" transform="translate(55.171875,34.5)" y="0" x="0" id="text-entity-ROLE-47fb4726-62fa-56f9-a62b-070f27ba78ef-attr-1-name" class="er entityLabel">name</text></g><g transform="translate(538.5634765625,20 )" id="entity-USER-6e7e2962-0c6f-577d-a7fd-2ce3a0cfd2c8"><rect height="66" width="100" y="0" x="0" class="er entityBox"/><text style="dominant-baseline: middle; text-anchor: middle; font-size: 12px;" transform="translate(50,12)" y="0" x="0" id="text-entity-USER-6e7e2962-0c6f-577d-a7fd-2ce3a0cfd2c8" class="er entityLabel">USER</text><rect height="21" width="50.171875" y="24" x="0" class="er attributeBoxOdd"/><text style="dominant-baseline: middle; font-size: 10.2px;" transform="translate(5,34.5)" y="0" x="0" id="text-entity-USER-6e7e2962-0c6f-577d-a7fd-2ce3a0cfd2c8-attr-1-type" class="er entityLabel">string</text><rect height="21" width="49.828125" y="24" x="50.171875" class="er attributeBoxOdd"/><text style="dominant-baseline: middle; font-size: 10.2px;" transform="translate(55.171875,34.5)" y="0" x="0" id="text-entity-USER-6e7e2962-0c6f-577d-a7fd-2ce3a0cfd2c8-attr-1-name" class="er entityLabel">email</text><rect height="21" width="50.171875" y="45" x="0" class="er attributeBoxEven"/><text style="dominant-baseline: middle; font-size: 10.2px;" transform="translate(5,55.5)" y="0" x="0" id="text-entity-USER-6e7e2962-0c6f-577d-a7fd-2ce3a0cfd2c8-attr-2-type" class="er entityLabel">string</text><rect height="21" width="49.828125" y="45" x="50.171875" class="er attributeBoxEven"/><text style="dominant-baseline: middle; font-size: 10.2px;" transform="translate(55.171875,55.5)" y="0" x="0" id="text-entity-USER-6e7e2962-0c6f-577d-a7fd-2ce3a0cfd2c8-attr-2-name" class="er entityLabel">name</text></g><rect height="14" width="50.796875" y="157.4448699951172" x="-45.65096092224121" class="er relationshipLabelBox"/><text style="text-anchor: middle; dominant-baseline: middle; font-size: 12px;" y="164.4448699951172" x="-20.25252342224121" id="rel1" class="er relationshipLabel">contains</text><rect height="14" width="50.796875" y="118.77433776855469" x="114.51470947265625" class="er relationshipLabelBox"/><text style="text-anchor: middle; dominant-baseline: middle; font-size: 12px;" y="125.77433776855469" x="139.91314697265625" id="rel2" class="er relationshipLabel">contains</text><rect height="14" width="50.796875" y="114.65888977050781" x="280.77532958984375" class="er relationshipLabelBox"/><text style="text-anchor: middle; dominant-baseline: middle; font-size: 12px;" y="121.65888977050781" x="306.17376708984375" id="rel3" class="er relationshipLabel">contains</text><rect height="14" width="50.796875" y="108.39537811279297" x="385.96417236328125" class="er relationshipLabelBox"/><text style="text-anchor: middle; dominant-baseline: middle; font-size: 12px;" y="115.39537811279297" x="411.36260986328125" id="rel4" class="er relationshipLabel">contains</text><rect height="14" width="48.546875" y="292.915771484375" x="90.19254302978516" class="er relationshipLabelBox"/><text style="text-anchor: middle; dominant-baseline: middle; font-size: 12px;" y="299.915771484375" x="114.46598052978516" id="rel5" class="er relationshipLabel">updates</text><rect height="14" width="48.546875" y="317.45367431640625" x="219.07901000976562" class="er relationshipLabelBox"/><text style="text-anchor: middle; dominant-baseline: middle; font-size: 12px;" y="324.45367431640625" x="243.35244750976562" id="rel6" class="er relationshipLabel">updates</text><rect height="14" width="21.21875" y="137.28399658203125" x="569.5111694335938" class="er relationshipLabelBox"/><text style="text-anchor: middle; dominant-baseline: middle; font-size: 12px;" y="144.28399658203125" x="580.1205444335938" id="rel7" class="er relationshipLabel">has</text></svg>